<svg ed:hSpacing="30" height="705" xmlns:ed="https://www.edrawsoft.com/xml/2017/SVGExtensions/" viewBox="0 0 868 705" xmlns:xlink="http://www.w3.org/1999/xlink" ed:name="Page-1" id="page100" width="868" xmlns="http://www.w3.org/2000/svg" ed:vSpacing="30" xmlns:ev="http://www.w3.org/2001/xml-events"><style type="text/css"><![CDATA[
g[ed\:togtopicid],g[ed\:hyperlink],g[ed\:comment],g[ed\:note] {cursor:pointer;}
g[id] {-moz-user-select: none;-ms-user-select: none;user-select: none;}
svg text::selection,svg tspan::selection{background-color: #4285f4;color: #ffffff;fill: #ffffff;}
.st4 {fill:#0070c0;font-family:微软雅黑;font-size:11pt;font-weight:bold}
.st2 {fill:#454545;font-family:微软雅黑;font-size:11pt;font-weight:bold}
.st1 {fill:#ff0000;font-family:微软雅黑;font-size:11pt;font-weight:bold}
.st3 {text-decoration:line-through}
]]></style><defs><linearGradient y2="100%" x1="0%" id="lg1" x2="0%" y1="0%"><stop stop-color="#ffffff" offset="0"/><stop stop-color="#f0f5f0" offset="0.25"/><stop stop-color="#e1ebe1" offset="0.75"/><stop stop-color="#c8d7c8" offset="1"/></linearGradient></defs><rect height="705" width="868" fill="#ffffff" x="0" y="0"/><path ed:parentid="106" id="156" stroke="#ffcd55" ed:idlist="106" fill="none" ed:type="summary" stroke-linejoin="round" d="M0.1,0C6,0,5.9,2.1,5.9,2.1L5.9,14.6C5.9,14.6,6.9,16.4,12,16.4C6.9,16.5,5.9,18.1,5.9,18.1L5.9,30.7C5.9,30.7,5.8,32.8,0,32.8" transform="matrix(1,0,0,1,322,648)"/><path ed:parentid="108,110,112,114,116,134" id="142" stroke="#ff7575" ed:idlist="108,110,112,114,116,134" fill="none" ed:type="summary" stroke-linejoin="round" d="M0.1,0C6,0,5.9,11.8,5.9,11.8L5.9,83.4C5.9,83.4,6.9,93.5,12,93.5C6.9,93.9,5.9,103.6,5.9,103.6L5.9,175.2C5.9,175.2,5.8,187,0,187" transform="matrix(1,0,0,1,497,25)"/><path ed:parentid="136,187" id="144" stroke="#ff7575" ed:idlist="136,187" fill="none" ed:type="summary" stroke-linejoin="round" d="M0.1,0C6,0,5.9,3.7,5.9,3.7L5.9,25.9C5.9,25.9,6.9,29,12,29C6.9,29.1,5.9,32.1,5.9,32.1L5.9,54.3C5.9,54.3,5.8,58,0,58" transform="matrix(1,0,0,1,417,255)"/><path ed:parentid="140" id="146" stroke="#ff7575" ed:idlist="140" fill="none" ed:type="summary" stroke-linejoin="round" d="M0.1,0C6,0,5.9,1.6,5.9,1.6L5.9,11.5C5.9,11.5,6.9,12.9,12,12.9C6.9,12.9,5.9,14.3,5.9,14.3L5.9,24.1C5.9,24.1,5.8,25.8,0,25.8" transform="matrix(1,0,0,1,425,322)"/><path ed:parentid="138" id="189" stroke="#ff7575" ed:idlist="138" fill="none" ed:type="summary" stroke-linejoin="round" d="M0.1,0C6,0,5.9,1.6,5.9,1.6L5.9,11.5C5.9,11.5,6.9,12.9,12,12.9C6.9,12.9,5.9,14.3,5.9,14.3L5.9,24.1C5.9,24.1,5.8,25.8,0,25.8" transform="matrix(1,0,0,1,397,221)"/><path ed:parentid="130" id="148" stroke="#5fb7f1" ed:idlist="130" fill="none" ed:type="summary" stroke-linejoin="round" d="M0.1,0C6,0,5.9,1.6,5.9,1.6L5.9,11.5C5.9,11.5,6.9,12.9,12,12.9C6.9,12.9,5.9,14.3,5.9,14.3L5.9,24.1C5.9,24.1,5.8,25.8,0,25.8" transform="matrix(1,0,0,1,585,385)"/><path ed:parentid="132" id="150" stroke="#5fb7f1" ed:idlist="132" fill="none" ed:type="summary" stroke-linejoin="round" d="M0.1,0C6,0,5.9,1.6,5.9,1.6L5.9,11.5C5.9,11.5,6.9,12.9,12,12.9C6.9,12.9,5.9,14.3,5.9,14.3L5.9,24.1C5.9,24.1,5.8,25.8,0,25.8" transform="matrix(1,0,0,1,570,421)"/><path ed:parentid="124,126" id="152" stroke="#5fb7f1" ed:idlist="124,126" fill="none" ed:type="summary" stroke-linejoin="round" d="M0.1,0C6,0,5.9,3.7,5.9,3.7L5.9,25.9C5.9,25.9,6.9,29,12,29C6.9,29.1,5.9,32.1,5.9,32.1L5.9,54.3C5.9,54.3,5.8,58,0,58" transform="matrix(1,0,0,1,700,456)"/><path ed:parentid="128" id="154" stroke="#5fb7f1" ed:idlist="128" fill="none" ed:type="summary" stroke-linejoin="round" d="M0.1,0C6,0,5.9,1.6,5.9,1.6L5.9,11.5C5.9,11.5,6.9,12.9,12,12.9C6.9,12.9,5.9,14.3,5.9,14.3L5.9,24.1C5.9,24.1,5.8,25.8,0,25.8" transform="matrix(1,0,0,1,671,522)"/><path ed:parentid="178,180" id="183" stroke="#5fb7f1" ed:idlist="178,180" fill="none" ed:type="summary" stroke-linejoin="round" d="M0.1,0C6,0,5.9,3.7,5.9,3.7L5.9,25.9C5.9,25.9,6.9,29,12,29C6.9,29.1,5.9,32.1,5.9,32.1L5.9,54.3C5.9,54.3,5.8,58,0,58" transform="matrix(1,0,0,1,654,557)"/><g ed:fromid="138" id="193" ed:toid="134" ed:type="relation" transform="matrix(1,0,0,1,428,214)"><path fill="none" d="M-35.2,10.4C282.2,-106.3,273.4,8.1,35.2,-10.4"/><path stroke="#a98ae7" stroke-linecap="round" fill="none" stroke-linejoin="round" d="M-35.2,10.4C279.7,-105.4,273.6,6.2,41,-10"/><path stroke-width="1" stroke="#a98ae7" stroke-linecap="round" fill="#a98ae7" d="M35.2,-10.4L41.8,-5.9C41.2,-7.2,40.9,-8.5,41,-10C41.1,-11.5,41.6,-12.8,42.4,-13.9L35.2,-10.4"/><rect height="20" width="218" fill="#ffffff" x="79.3" y="-46.5"/><text class="st1"><tspan style="white-space:pre" x="98" y="-32.1">传统PCA融合属于加权平均灰度法</tspan></text></g><path ed:parentid="101" id="103" stroke="#ff7575" fill="#ff7575" stroke-linecap="round" ed:tosuperid="102" d="M-27,46.7C-27.9,48.2,-27.6,49.8,-26.4,50.6C-25.2,51.3,-23.6,50.9,-22.7,49.3C-21.5,47.2,-20.3,45.2,-19.2,43.1C-18.1,41,-17.1,38.8,-16.1,36.7C-15.1,34.6,-14.1,32.4,-13.2,30.2C-12.3,28.1,-11.4,25.9,-10.5,23.7C-9.6,21.5,-8.8,19.3,-8,17.2C-7.1,15,-6.3,12.8,-5.5,10.6C-4.7,8.4,-3.9,6.2,-3.1,4C-2.3,1.8,-1.5,-0.4,-0.7,-2.6C0.2,-4.7,1,-6.9,1.8,-9.1C2.6,-11.3,3.5,-13.4,4.3,-15.6C5.2,-17.7,6.1,-19.9,7,-22C7.9,-24.2,8.8,-26.3,9.8,-28.4C10.8,-30.5,11.8,-32.6,12.8,-34.6C13.9,-36.7,15,-38.7,16.1,-40.7C17.3,-42.7,18.5,-44.7,19.7,-46.6C21,-48.6,22.3,-50.4,23.8,-52.3C25.2,-54.1,26.7,-55.8,28.2,-57.5C29.8,-59.2,31.5,-60.8,33.2,-62.2C35,-63.7,36.8,-65.1,38.8,-66.3C40.7,-67.5,42.7,-68.6,44.8,-69.6C46.9,-70.5,49.1,-71.3,51.3,-72C53.5,-72.6,55.7,-73.1,58,-73.4C60.4,-73.7,63,-73.9,65.6,-74C65.9,-74,66.2,-74.2,66.2,-74.5C66.2,-74.8,65.9,-75,65.6,-75C63,-74.9,60.3,-74.9,57.9,-74.6C55.4,-74.3,53.2,-73.9,50.9,-73.3C48.7,-72.7,46.4,-71.9,44.2,-71C42,-70.1,39.9,-69,37.9,-67.8C35.8,-66.5,33.9,-65.2,32,-63.7C30.2,-62.2,28.4,-60.6,26.8,-58.9C25.1,-57.2,23.5,-55.5,22,-53.6C20.5,-51.8,19.1,-49.9,17.7,-48C16.4,-46,15.1,-44.1,13.9,-42.1C12.7,-40,11.5,-38,10.4,-35.9C9.3,-33.8,8.2,-31.8,7.2,-29.6C6.1,-27.5,5.1,-25.4,4.1,-23.3C3.2,-21.1,2.2,-19,1.3,-16.8C0.4,-14.7,-0.5,-12.5,-1.4,-10.4C-2.3,-8.2,-3.2,-6,-4,-3.8C-4.9,-1.7,-5.8,0.5,-6.6,2.7C-7.5,4.8,-8.3,7,-9.2,9.2C-10.1,11.3,-10.9,13.5,-11.8,15.6C-12.7,17.8,-13.6,19.9,-14.5,22.1C-15.4,24.2,-16.3,26.3,-17.3,28.4C-18.3,30.5,-19.2,32.6,-20.3,34.7C-21.3,36.7,-22.3,38.8,-23.5,40.8C-24.6,42.8,-25.8,44.7,-27,46.7z" stroke-linejoin="round" transform="matrix(1,0,0,1,158,278)"/><path ed:parentid="101" id="105" stroke="#5fb7f1" fill="#5fb7f1" stroke-linecap="round" ed:tosuperid="104" d="M-23.9,-55.9C-24.8,-57.5,-26.4,-57.9,-27.6,-57.2C-28.8,-56.5,-29.1,-54.9,-28.2,-53.4C-27.1,-51.4,-26,-49.4,-24.9,-47.4C-23.8,-45.4,-22.8,-43.3,-21.9,-41.2C-20.9,-39.1,-20,-37,-19.1,-34.9C-18.2,-32.7,-17.3,-30.6,-16.4,-28.4C-15.6,-26.3,-14.8,-24.1,-14,-21.9C-13.2,-19.8,-12.4,-17.6,-11.6,-15.4C-10.8,-13.2,-10,-11,-9.3,-8.8C-8.5,-6.6,-7.7,-4.4,-7,-2.2C-6.2,0,-5.4,2.2,-4.6,4.4C-3.9,6.6,-3.1,8.8,-2.3,11C-1.5,13.2,-0.7,15.4,0.2,17.6C1,19.8,1.8,22,2.7,24.2C3.6,26.4,4.5,28.5,5.4,30.7C6.4,32.8,7.3,35,8.3,37.1C9.3,39.2,10.4,41.3,11.5,43.4C12.6,45.5,13.7,47.5,15,49.6C16.2,51.6,17.5,53.6,18.8,55.5C20.2,57.4,21.6,59.3,23.1,61.2C24.6,63,26.2,64.7,27.9,66.4C29.6,68.1,31.4,69.6,33.2,71.1C35.1,72.5,37.1,73.9,39.1,75C41.2,76.2,43.3,77.3,45.5,78.1C47.7,79,50,79.7,52.3,80.2C54.7,80.8,57.1,81.2,59.3,81.4C61.5,81.6,63.6,81.6,65.6,81.6C65.9,81.6,66.2,81.4,66.2,81.1C66.2,80.8,65.9,80.6,65.6,80.6C63.6,80.6,61.6,80.5,59.4,80.2C57.2,80,54.9,79.5,52.6,79C50.4,78.4,48.2,77.7,46.1,76.8C44,75.9,41.9,74.8,40,73.6C38,72.4,36.1,71.1,34.3,69.7C32.6,68.2,30.9,66.7,29.3,65C27.7,63.4,26.2,61.6,24.7,59.8C23.3,58,22,56.2,20.7,54.2C19.4,52.3,18.2,50.3,17.1,48.3C15.9,46.3,14.8,44.3,13.8,42.2C12.8,40.2,11.8,38.1,10.8,35.9C9.9,33.8,9,31.7,8.1,29.6C7.2,27.4,6.4,25.2,5.6,23.1C4.8,20.9,4,18.7,3.2,16.5C2.4,14.3,1.7,12.1,0.9,9.9C0.2,7.7,-0.6,5.5,-1.3,3.3C-2,1.1,-2.7,-1.1,-3.4,-3.4C-4.2,-5.6,-4.9,-7.8,-5.6,-10C-6.3,-12.2,-7,-14.5,-7.8,-16.7C-8.5,-18.9,-9.3,-21.1,-10,-23.3C-10.8,-25.6,-11.6,-27.8,-12.4,-30C-13.2,-32.2,-14,-34.4,-14.9,-36.6C-15.7,-38.8,-16.6,-41,-17.6,-43.1C-18.5,-45.3,-19.5,-47.4,-20.6,-49.6C-21.6,-51.7,-22.8,-53.8,-23.9,-55.9z" stroke-linejoin="round" transform="matrix(1,0,0,1,158,434)"/><path ed:parentid="101" id="107" stroke="#ffcd55" fill="#ffcd55" stroke-linecap="round" ed:tosuperid="106" d="M-31,-138.3C-31.7,-140,-33.3,-140.6,-34.5,-140.1C-35.8,-139.5,-36.3,-138,-35.6,-136.3C-34.7,-134.2,-33.8,-132.1,-33,-130C-32.2,-127.8,-31.5,-125.7,-30.8,-123.5C-30.1,-121.3,-29.5,-119.1,-28.9,-116.8C-28.3,-114.6,-27.8,-112.4,-27.2,-110.1C-26.7,-107.9,-26.2,-105.6,-25.8,-103.3C-25.3,-101.1,-24.8,-98.8,-24.4,-96.5C-24,-94.2,-23.6,-91.9,-23.2,-89.7C-22.9,-87.4,-22.5,-85.1,-22.2,-82.8C-21.8,-80.5,-21.5,-78.2,-21.2,-75.9C-20.9,-73.6,-20.5,-71.3,-20.3,-68.9C-20,-66.6,-19.7,-64.3,-19.4,-62C-19.1,-59.7,-18.9,-57.4,-18.6,-55.1C-18.4,-52.8,-18.1,-50.4,-17.9,-48.1C-17.6,-45.8,-17.4,-43.5,-17.1,-41.2C-16.9,-38.9,-16.7,-36.5,-16.4,-34.2C-16.2,-31.9,-16,-29.6,-15.8,-27.2C-15.5,-24.9,-15.3,-22.6,-15.1,-20.3C-14.9,-18,-14.6,-15.6,-14.4,-13.3C-14.2,-11,-14,-8.7,-13.7,-6.3C-13.5,-4,-13.3,-1.7,-13,0.6C-12.8,2.9,-12.6,5.3,-12.3,7.6C-12.1,9.9,-11.9,12.2,-11.6,14.6C-11.4,16.9,-11.1,19.2,-10.8,21.5C-10.6,23.9,-10.3,26.2,-10,28.5C-9.8,30.8,-9.5,33.1,-9.2,35.5C-8.9,37.8,-8.6,40.1,-8.3,42.4C-8,44.7,-7.6,47,-7.3,49.4C-7,51.7,-6.6,54,-6.2,56.3C-5.9,58.6,-5.5,60.9,-5.1,63.2C-4.7,65.5,-4.3,67.8,-3.9,70.1C-3.4,72.4,-3,74.7,-2.5,77C-2,79.3,-1.5,81.6,-1,83.9C-0.5,86.2,0,88.4,0.6,90.7C1.2,93,1.8,95.3,2.4,97.5C3,99.8,3.7,102,4.4,104.3C5.1,106.5,5.8,108.7,6.6,110.9C7.4,113.1,8.2,115.3,9.1,117.5C10,119.7,10.9,121.9,11.9,124C12.9,126.1,13.9,128.2,15,130.3C16.1,132.4,17.3,134.4,18.6,136.4C19.8,138.4,21.2,140.3,22.6,142.2C24,144.1,25.5,145.9,27.1,147.6C28.7,149.4,30.5,151,32.3,152.5C34.1,154.1,36,155.5,38,156.7C40,158,42.1,159.1,44.2,160.1C46.4,161,48.7,161.8,50.9,162.4C53.1,163.1,55.4,163.6,57.8,163.8C60.3,164.1,62.9,164.2,65.6,164.3C65.9,164.3,66.2,164.1,66.2,163.8C66.2,163.5,65.9,163.3,65.6,163.3C63,163.2,60.4,163.1,58,162.8C55.6,162.5,53.4,162,51.2,161.3C49,160.7,46.8,159.9,44.7,158.9C42.6,158,40.6,156.8,38.7,155.6C36.8,154.3,34.9,152.9,33.2,151.4C31.4,149.9,29.8,148.3,28.2,146.6C26.7,144.9,25.2,143.1,23.9,141.3C22.5,139.4,21.2,137.5,20,135.5C18.8,133.6,17.6,131.5,16.6,129.5C15.5,127.4,14.5,125.3,13.6,123.2C12.6,121.1,11.7,119,10.9,116.8C10,114.7,9.3,112.5,8.5,110.3C7.8,108.1,7.1,105.9,6.4,103.6C5.7,101.4,5.1,99.2,4.5,96.9C3.9,94.7,3.3,92.4,2.8,90.2C2.3,87.9,1.7,85.6,1.3,83.4C0.8,81.1,0.3,78.8,-0.1,76.5C-0.6,74.3,-1,72,-1.4,69.7C-1.8,67.4,-2.2,65.1,-2.5,62.8C-2.9,60.5,-3.3,58.2,-3.6,55.9C-3.9,53.6,-4.3,51.3,-4.6,49C-4.9,46.7,-5.2,44.4,-5.5,42C-5.7,39.7,-6,37.4,-6.3,35.1C-6.5,32.8,-6.8,30.5,-7,28.2C-7.3,25.8,-7.5,23.5,-7.8,21.2C-8,18.9,-8.2,16.6,-8.5,14.2C-8.7,11.9,-8.9,9.6,-9.1,7.3C-9.3,5,-9.5,2.6,-9.7,0.3C-9.9,-2,-10.1,-4.3,-10.3,-6.7C-10.5,-9,-10.7,-11.3,-10.9,-13.6C-11.1,-16,-11.3,-18.3,-11.5,-20.6C-11.7,-22.9,-11.9,-25.3,-12.1,-27.6C-12.3,-29.9,-12.5,-32.2,-12.7,-34.6C-12.9,-36.9,-13.1,-39.2,-13.3,-41.5C-13.5,-43.9,-13.7,-46.2,-14,-48.5C-14.2,-50.8,-14.4,-53.2,-14.6,-55.5C-14.9,-57.8,-15.1,-60.1,-15.4,-62.5C-15.6,-64.8,-15.9,-67.1,-16.1,-69.4C-16.4,-71.8,-16.7,-74.1,-17,-76.4C-17.2,-78.7,-17.5,-81.1,-17.9,-83.4C-18.2,-85.7,-18.5,-88,-18.9,-90.3C-19.2,-92.7,-19.6,-95,-20,-97.3C-20.4,-99.6,-20.8,-101.9,-21.3,-104.2C-21.7,-106.5,-22.2,-108.8,-22.7,-111.1C-23.2,-113.4,-23.7,-115.7,-24.3,-118C-24.9,-120.3,-25.5,-122.6,-26.2,-124.9C-26.9,-127.1,-27.6,-129.4,-28.4,-131.6C-29.2,-133.9,-30.1,-136.1,-31,-138.3z" stroke-linejoin="round" transform="matrix(1,0,0,1,158,516)"/><path ed:parentid="102" stroke-width="2" id="109" stroke="#ff7575" stroke-linecap="round" fill="none" ed:tosuperid="108" stroke-linejoin="round" d="M-13.5,76.4C5.4,76.4,-13.5,-76.4,13.5,-76.4" transform="matrix(1,0,0,1,330,127)"/><path ed:parentid="102" stroke-width="2" id="111" stroke="#ff7575" stroke-linecap="round" fill="none" ed:tosuperid="110" stroke-linejoin="round" d="M-13.5,60.3C5.4,60.3,-13.5,-60.3,13.5,-60.3" transform="matrix(1,0,0,1,330,143)"/><path ed:parentid="102" stroke-width="2" id="113" stroke="#ff7575" stroke-linecap="round" fill="none" ed:tosuperid="112" stroke-linejoin="round" d="M-13.5,44.2C5.1,44.2,-12.7,-44.2,13.5,-44.2" transform="matrix(1,0,0,1,330,159)"/><path ed:parentid="102" stroke-width="2" id="115" stroke="#ff7575" stroke-linecap="round" fill="none" ed:tosuperid="114" stroke-linejoin="round" d="M-13.5,28.1C3.2,28.1,-8.4,-28.1,13.5,-28.1" transform="matrix(1,0,0,1,330,176)"/><path ed:parentid="102" stroke-width="2" id="117" stroke="#ff7575" stroke-linecap="round" fill="none" ed:tosuperid="116" stroke-linejoin="round" d="M-13.5,11.9C0.1,11.9,-1,-11.9,13.5,-11.9" transform="matrix(1,0,0,1,330,192)"/><path ed:parentid="104" stroke-width="2" id="119" stroke="#5fb7f1" stroke-linecap="round" fill="none" ed:tosuperid="118" stroke-linejoin="round" d="M-13.5,43.1C5,43.1,-12.6,-43.1,13.5,-43.1" transform="matrix(1,0,0,1,330,472)"/><path ed:parentid="104" stroke-width="2" id="121" stroke="#5fb7f1" stroke-linecap="round" fill="none" ed:tosuperid="120" stroke-linejoin="round" d="M-13.5,-0.4C-2.7,-0.4,5.4,0.4,13.5,0.4" transform="matrix(1,0,0,1,330,515)"/><path ed:parentid="120" stroke-width="2" id="125" stroke="#5fb7f1" stroke-linecap="round" fill="none" ed:tosuperid="124" stroke-linejoin="round" d="M-13.5,17.2C1.2,17.2,-3.7,-17.2,13.5,-17.2" transform="matrix(1,0,0,1,433,498)"/><path ed:parentid="120" stroke-width="2" id="127" stroke="#5fb7f1" stroke-linecap="round" fill="none" ed:tosuperid="126" stroke-linejoin="round" d="M-13.5,1.1C-2.7,1.1,5.4,-1.1,13.5,-1.1" transform="matrix(1,0,0,1,433,515)"/><path ed:parentid="120" stroke-width="2" id="129" stroke="#5fb7f1" stroke-linecap="round" fill="none" ed:tosuperid="128" stroke-linejoin="round" d="M-13.5,-16.1C1,-16.1,-3.1,16.1,13.5,16.1" transform="matrix(1,0,0,1,433,532)"/><path ed:parentid="118" stroke-width="2" id="131" stroke="#5fb7f1" stroke-linecap="round" fill="none" ed:tosuperid="130" stroke-linejoin="round" d="M-13.5,9.1C-0.6,9.1,0.4,-9.1,13.5,-9.1" transform="matrix(1,0,0,1,447,420)"/><path ed:parentid="118" stroke-width="2" id="133" stroke="#5fb7f1" stroke-linecap="round" fill="none" ed:tosuperid="132" stroke-linejoin="round" d="M-13.5,-9.1C-0.6,-9.1,0.4,9.1,13.5,9.1" transform="matrix(1,0,0,1,447,438)"/><path ed:parentid="102" stroke-width="2" id="135" stroke="#ff7575" stroke-linecap="round" fill="none" ed:tosuperid="134" stroke-linejoin="round" d="M-13.5,-4.2C-1.7,-4.2,3.1,4.2,13.5,4.2" transform="matrix(1,0,0,1,330,208)"/><path ed:parentid="102" stroke-width="2" id="137" stroke="#ff7575" stroke-linecap="round" fill="none" ed:tosuperid="136" stroke-linejoin="round" d="M-13.5,-38.6C4.6,-38.6,-11.6,38.6,13.5,38.6" transform="matrix(1,0,0,1,330,242)"/><path ed:parentid="102" stroke-width="2" id="139" stroke="#ff7575" stroke-linecap="round" fill="none" ed:tosuperid="138" stroke-linejoin="round" d="M-13.5,-21.4C2,-21.4,-5.6,21.4,13.5,21.4" transform="matrix(1,0,0,1,330,225)"/><path ed:parentid="102" stroke-width="2" id="141" stroke="#ff7575" stroke-linecap="round" fill="none" ed:tosuperid="140" stroke-linejoin="round" d="M-13.5,-71.9C5.4,-71.9,-13.5,71.9,13.5,71.9" transform="matrix(1,0,0,1,330,276)"/><path ed:parentid="104" stroke-width="2" id="177" stroke="#5fb7f1" stroke-linecap="round" fill="none" ed:tosuperid="176" stroke-linejoin="round" d="M-13.5,-41.8C4.9,-41.8,-12.3,41.8,13.5,41.8" transform="matrix(1,0,0,1,330,557)"/><path ed:parentid="176" stroke-width="2" id="179" stroke="#5fb7f1" stroke-linecap="round" fill="none" ed:tosuperid="178" stroke-linejoin="round" d="M-13.5,8.1C-0.8,8.1,1,-8.1,13.5,-8.1" transform="matrix(1,0,0,1,476,590)"/><path ed:parentid="176" stroke-width="2" id="181" stroke="#5fb7f1" stroke-linecap="round" fill="none" ed:tosuperid="180" stroke-linejoin="round" d="M-13.5,-8.1C-0.8,-8.1,1,8.1,13.5,8.1" transform="matrix(1,0,0,1,476,606)"/><path ed:parentid="102" stroke-width="2" id="188" stroke="#ff7575" stroke-linecap="round" fill="none" ed:tosuperid="187" stroke-linejoin="round" d="M-13.5,-54.7C5.4,-54.7,-13.5,54.7,13.5,54.7" transform="matrix(1,0,0,1,330,258)"/><g ed:topictype="mainidea" ed:height="53" id="101" ed:width="136.32" transform="matrix(1,0,0,1,24,326)" ed:layout="map"><path stroke-width="4" stroke="#ffffff" fill="#ffffff" d="M26.5,0L109.8,0C124.5,0,136.3,11.9,136.3,26.5C136.3,41.1,124.5,53,109.8,53L26.5,53C11.9,53,0,41.1,0,26.5C0,11.9,11.9,0,26.5,0z" stroke-linejoin="round"/><text class="st2"><tspan style="white-space:pre" x="23" y="30.8">图像融合方法</tspan></text></g><g ed:parentid="101" ed:height="32.75" id="102" ed:width="93.59999999999999" transform="matrix(1,0,0,1,223,171)" ed:layout="rightmap"><path stroke-width="2" stroke="#ff7575" fill="none" stroke-linejoin="round" d="M0,32.8L93.6,32.8"/><text class="st2"><tspan style="white-space:pre" x="17" y="20.4">空间域法</tspan></text></g><g ed:parentid="101" ed:height="32.75" id="104" ed:width="93.59999999999999" transform="matrix(1,0,0,1,223,482)" ed:layout="rightmap"><path stroke-width="2" stroke="#5fb7f1" fill="none" stroke-linejoin="round" d="M0,32.8L93.6,32.8"/><text class="st2"><tspan style="white-space:pre" x="17" y="20.4">变换域法</tspan></text></g><g ed:parentid="101" ed:height="32.75" id="106" ed:width="93.59999999999999" transform="matrix(1,0,0,1,223,648)" ed:layout="rightmap"><path stroke-width="2" stroke="#ffcd55" fill="none" stroke-linejoin="round" d="M0,32.8L93.6,32.8"/><text class="st2"><tspan style="white-space:pre" class="st3" x="17" y="20.4">深度学习</tspan></text></g><g ed:parentid="102" ed:height="25.75" id="108" ed:width="90" transform="matrix(1,0,0,1,344,25)" ed:layout="rightmap"><path stroke-width="2" stroke="#ff7575" fill="none" stroke-linejoin="round" d="M0,25.8L90,25.8"/><text class="st4"><tspan style="white-space:pre" x="8" y="16.8">平均灰度法</tspan></text></g><g ed:parentid="102" ed:height="25.75" id="110" ed:width="90" transform="matrix(1,0,0,1,344,57)" ed:layout="rightmap"><path stroke-width="2" stroke="#ff7575" fill="none" stroke-linejoin="round" d="M0,25.8L90,25.8"/><text class="st4"><tspan style="white-space:pre" x="8" y="16.8">最大灰度法</tspan></text></g><g ed:parentid="102" ed:height="25.75" id="112" ed:width="90" transform="matrix(1,0,0,1,344,90)" ed:layout="rightmap"><path stroke-width="2" stroke="#ff7575" fill="none" stroke-linejoin="round" d="M0,25.8L90,25.8"/><text class="st4"><tspan style="white-space:pre" x="8" y="16.8">最小灰度法</tspan></text></g><g ed:parentid="102" ed:height="25.75" id="114" ed:width="147.6" transform="matrix(1,0,0,1,344,122)" ed:layout="rightmap"><path stroke-width="2" stroke="#ff7575" fill="none" stroke-linejoin="round" d="M0,25.8L147.6,25.8"/><text class="st4"><tspan style="white-space:pre" x="8" y="16.8">最大最小平均灰度法</tspan></text></g><g ed:parentid="102" ed:height="25.75" id="116" ed:width="147.6" transform="matrix(1,0,0,1,344,154)" ed:layout="rightmap"><path stroke-width="2" stroke="#ff7575" fill="none" stroke-linejoin="round" d="M0,25.8L147.6,25.8"/><text class="st4"><tspan style="white-space:pre" x="8" y="16.8">简单邻域平均灰度法</tspan></text></g><g ed:parentid="104" ed:height="25.75" id="118" ed:width="90" transform="matrix(1,0,0,1,344,403)" ed:layout="rightmap"><path stroke-width="2" stroke="#5fb7f1" fill="none" stroke-linejoin="round" d="M0,25.8L90,25.8"/><text class="st2"><tspan style="white-space:pre" x="8" y="16.8">金字塔分解</tspan></text></g><g ed:parentid="104" ed:height="25.75" id="120" ed:width="75.59999999999999" transform="matrix(1,0,0,1,344,490)" ed:layout="rightmap"><path stroke-width="2" stroke="#5fb7f1" fill="none" stroke-linejoin="round" d="M0,25.8L75.6,25.8"/><text class="st2"><tspan style="white-space:pre" x="8" y="16.8">离散变换</tspan></text></g><g ed:parentid="120" ed:height="25.75" id="124" ed:width="248.4" transform="matrix(1,0,0,1,447,456)" ed:layout="rightmap"><path stroke-width="2" stroke="#5fb7f1" fill="none" stroke-linejoin="round" d="M0,25.8L248.4,25.8"/><text class="st4"><tspan style="white-space:pre" x="8" y="16.8">离散余弦变换（非多尺度分块融合）</tspan></text></g><g ed:parentid="120" ed:height="25.75" id="126" ed:width="205.2" transform="matrix(1,0,0,1,447,488)" ed:layout="rightmap"><path stroke-width="2" stroke="#5fb7f1" fill="none" stroke-linejoin="round" d="M0,25.8L205.2,25.8"/><text class="st4"><tspan style="white-space:pre" x="8" y="16.8">离散小波变换（多尺度融合）</tspan></text></g><g ed:parentid="120" ed:height="25.75" id="128" ed:width="219.6" transform="matrix(1,0,0,1,447,522)" ed:layout="rightmap"><path stroke-width="2" stroke="#5fb7f1" fill="none" stroke-linejoin="round" d="M0,25.8L219.6,25.8"/><text class="st2"><tspan style="white-space:pre" class="st3" x="8" y="16.8">平稳小波、曲小波、混合小波等</tspan></text></g><g ed:parentid="118" ed:height="25.75" id="130" ed:width="118.8" transform="matrix(1,0,0,1,461,385)" ed:layout="rightmap"><path stroke-width="2" stroke="#5fb7f1" fill="none" stroke-linejoin="round" d="M0,25.8L118.8,25.8"/><text class="st4"><tspan style="white-space:pre" x="8" y="16.8">拉普拉斯金字塔</tspan></text></g><g ed:parentid="118" ed:height="25.75" id="132" ed:width="104.4" transform="matrix(1,0,0,1,461,421)" ed:layout="rightmap"><path stroke-width="2" stroke="#5fb7f1" fill="none" stroke-linejoin="round" d="M0,25.8L104.4,25.8"/><text class="st2"><tspan style="white-space:pre" class="st3" x="8" y="16.8">梯度金字塔等</tspan></text></g><g ed:parentid="102" ed:height="25.75" id="134" ed:width="118.8" transform="matrix(1,0,0,1,344,186)" ed:layout="rightmap"><path stroke-width="2" stroke="#ff7575" fill="none" stroke-linejoin="round" d="M0,25.8L118.8,25.8"/><text class="st4"><tspan style="white-space:pre" x="8" y="16.8">加权平均灰度法</tspan></text></g><g ed:parentid="102" ed:height="25.75" id="136" ed:width="43.6" transform="matrix(1,0,0,1,344,255)" ed:layout="rightmap"><path stroke-width="2" stroke="#ff7575" fill="none" stroke-linejoin="round" d="M0,25.8L43.6,25.8"/><text class="st4"><tspan style="white-space:pre" x="8" y="16.8">IHS</tspan></text></g><g ed:parentid="102" ed:height="25.75" id="138" ed:width="48.4" transform="matrix(1,0,0,1,344,221)" ed:layout="rightmap"><path stroke-width="2" stroke="#ff7575" fill="none" stroke-linejoin="round" d="M0,25.8L48.4,25.8"/><text class="st4"><tspan style="white-space:pre" x="8" y="16.8">PCA</tspan></text></g><g ed:parentid="102" ed:height="25.75" id="140" ed:width="75.59999999999999" transform="matrix(1,0,0,1,344,322)" ed:layout="rightmap"><path stroke-width="2" stroke="#ff7575" fill="none" stroke-linejoin="round" d="M0,25.8L75.6,25.8"/><text class="st2"><tspan style="white-space:pre" class="st3" x="8" y="16.8">导向滤波</tspan></text></g><g ed:parentid="142" ed:height="30" id="143" ed:width="129.56" transform="matrix(1,0,0,1,518,104)" ed:layout="rightmap"><path stroke="#ff7575" fill="#ffffff" d="M15,0L114.6,0C122.8,0,129.6,6.7,129.6,15C129.6,23.3,122.8,30,114.6,30L15,30C6.7,30,0,23.3,0,15C0,6.7,6.7,0,15,0z" stroke-linejoin="round"/><text class="st2"><tspan style="white-space:pre" x="13" y="19.3">最为基本、简单</tspan></text></g><g ed:parentid="144" ed:height="30" id="145" ed:width="270.36" transform="matrix(1,0,0,1,438,269)" ed:layout="rightmap"><path stroke="#ff7575" fill="#ffffff" d="M15,0L255.4,0C263.6,0,270.4,6.7,270.4,15C270.4,23.3,263.6,30,255.4,30L15,30C6.7,30,0,23.3,0,15C0,6.7,6.7,0,15,0z" stroke-linejoin="round"/><text class="st2"><tspan style="white-space:pre" x="13" y="19.3">处理遥感图像：多光谱图像+全色图像</tspan></text></g><g ed:parentid="146" ed:height="30" id="147" ed:width="287.96" transform="matrix(1,0,0,1,446,320)" ed:layout="rightmap"><path stroke="#ff7575" fill="#ffffff" d="M15,0L273,0C281.2,0,288,6.7,288,15C288,23.3,281.2,30,273,30L15,30C6.7,30,0,23.3,0,15C0,6.7,6.7,0,15,0z" stroke-linejoin="round"/><text class="st2"><tspan style="white-space:pre" x="13" y="19.3">一种边缘保持的滤波方法，暂时不作了解</tspan></text></g><g ed:parentid="148" ed:height="30" id="149" ed:width="86.36" transform="matrix(1,0,0,1,606,383)" ed:layout="rightmap"><path stroke="#5fb7f1" fill="#ffffff" d="M15,0L71.4,0C79.6,0,86.4,6.7,86.4,15C86.4,23.3,79.6,30,71.4,30L15,30C6.7,30,0,23.3,0,15C0,6.7,6.7,0,15,0z" stroke-linejoin="round"/><text class="st2"><tspan style="white-space:pre" x="13" y="19.3">最为经典</tspan></text></g><g ed:parentid="150" ed:height="30" id="151" ed:width="201.56" transform="matrix(1,0,0,1,591,419)" ed:layout="rightmap"><path stroke="#5fb7f1" fill="#ffffff" d="M15,0L186.6,0C194.8,0,201.6,6.7,201.6,15C201.6,23.3,194.8,30,186.6,30L15,30C6.7,30,0,23.3,0,15C0,6.7,6.7,0,15,0z" stroke-linejoin="round"/><text class="st2"><tspan style="white-space:pre" x="13" y="19.3">原理与拉普拉斯金字塔类似</tspan></text></g><g ed:parentid="152" ed:height="30" id="153" ed:width="86.36" transform="matrix(1,0,0,1,721,470)" ed:layout="rightmap"><path stroke="#5fb7f1" fill="#ffffff" d="M15,0L71.4,0C79.6,0,86.4,6.7,86.4,15C86.4,23.3,79.6,30,71.4,30L15,30C6.7,30,0,23.3,0,15C0,6.7,6.7,0,15,0z" stroke-linejoin="round"/><text class="st2"><tspan style="white-space:pre" x="13" y="19.3">最为常见</tspan></text></g><g ed:parentid="154" ed:height="30" id="155" ed:width="115.16" transform="matrix(1,0,0,1,692,520)" ed:layout="rightmap"><path stroke="#5fb7f1" fill="#ffffff" d="M15,0L100.2,0C108.4,0,115.2,6.7,115.2,15C115.2,23.3,108.4,30,100.2,30L15,30C6.7,30,0,23.3,0,15C0,6.7,6.7,0,15,0z" stroke-linejoin="round"/><text class="st2"><tspan style="white-space:pre" x="13" y="19.3">暂时不作了解</tspan></text></g><g ed:parentid="156" ed:height="30" id="157" ed:width="259.16" transform="matrix(1,0,0,1,343,649)" ed:layout="rightmap"><path stroke="#ffcd55" fill="#ffffff" d="M15,0L244.2,0C252.4,0,259.2,6.7,259.2,15C259.2,23.3,252.4,30,244.2,30L15,30C6.7,30,0,23.3,0,15C0,6.7,6.7,0,15,0z" stroke-linejoin="round"/><text class="st2"><tspan style="white-space:pre" x="13" y="19.3">暂时不作了解，但可以看一看PCNN</tspan></text></g><g ed:parentid="104" ed:height="25.75" id="176" ed:width="118.8" transform="matrix(1,0,0,1,344,573)" ed:layout="rightmap"><path stroke-width="2" stroke="#5fb7f1" fill="none" stroke-linejoin="round" d="M0,25.8L118.8,25.8"/><text class="st2"><tspan style="white-space:pre" class="st3" x="8" y="16.8">多尺度几何分析</tspan></text></g><g ed:parentid="176" ed:height="25.75" id="178" ed:width="158.8" transform="matrix(1,0,0,1,490,557)" ed:layout="rightmap"><path stroke-width="2" stroke="#5fb7f1" fill="none" stroke-linejoin="round" d="M0,25.8L158.8,25.8"/><text class="st2"><tspan style="white-space:pre" x="8" y="16.8">(非下采样)轮廓波变换</tspan></text></g><g ed:parentid="176" ed:height="25.75" id="180" ed:width="158.8" transform="matrix(1,0,0,1,490,589)" ed:layout="rightmap"><path stroke-width="2" stroke="#5fb7f1" fill="none" stroke-linejoin="round" d="M0,25.8L158.8,25.8"/><text class="st2"><tspan style="white-space:pre" x="8" y="16.8">(非下采样)剪切波变换</tspan></text></g><g ed:parentid="183" ed:height="30" id="184" ed:width="172.76" transform="matrix(1,0,0,1,675,571)" ed:layout="rightmap"><path stroke="#5fb7f1" fill="#ffffff" d="M15,0L157.8,0C166,0,172.8,6.7,172.8,15C172.8,23.3,166,30,157.8,30L15,30C6.7,30,0,23.3,0,15C0,6.7,6.7,0,15,0z" stroke-linejoin="round"/><text class="st2"><tspan style="white-space:pre" x="13" y="19.3">暂时先知道有这个东西</tspan></text></g><g ed:parentid="102" ed:height="25.75" id="187" ed:width="67.59999999999999" transform="matrix(1,0,0,1,344,287)" ed:layout="rightmap"><path stroke-width="2" stroke="#ff7575" fill="none" stroke-linejoin="round" d="M0,25.8L67.6,25.8"/><text class="st4"><tspan style="white-space:pre" x="8" y="16.8">Brovey</tspan></text></g><g ed:parentid="189" ed:height="30" id="190" ed:width="302.36" transform="matrix(1,0,0,1,418,219)" ed:layout="rightmap"><path stroke="#ff7575" fill="#ffffff" d="M15,0L287.4,0C295.6,0,302.4,6.7,302.4,15C302.4,23.3,295.6,30,287.4,30L15,30C6.7,30,0,23.3,0,15C0,6.7,6.7,0,15,0z" stroke-linejoin="round"/><text class="st2"><tspan style="white-space:pre" x="13" y="19.3">既能确定加权融合系数、又能处理遥感图像</tspan></text></g><symbol id="plus"><path fill="url(#lg1)" d="M11,6C11,8.8,8.8,11,6,11C3.2,11,1,8.8,1,6C1,3.2,3.2,1,6,1C8.8,1,11,3.2,11,6z"/><path stroke-width="0.7" stroke="#46a000" fill="none" d="M11,6C11,8.8,8.8,11,6,11C3.2,11,1,8.8,1,6C1,3.2,3.2,1,6,1C8.8,1,11,3.2,11,6zM3,6L9,6M6,3L6,9"/></symbol><symbol id="minus"><path fill="url(#lg1)" d="M11,6C11,8.8,8.8,11,6,11C3.2,11,1,8.8,1,6C1,3.2,3.2,1,6,1C8.8,1,11,3.2,11,6z"/><path stroke-width="0.7" stroke="#46a000" fill="none" d="M11,6C11,8.8,8.8,11,6,11C3.2,11,1,8.8,1,6C1,3.2,3.2,1,6,1C8.8,1,11,3.2,11,6zM3,6L9,6"/></symbol><g ed:togtopicid="101" transform="translate(161,347)"><use xlink:href="#minus"/></g><g ed:togtopicid="102" transform="translate(318,181)"><use xlink:href="#minus"/></g><g ed:togtopicid="104" transform="translate(318,493)"><use xlink:href="#minus"/></g><g ed:togtopicid="118" transform="translate(435,410)"><use xlink:href="#minus"/></g><g ed:togtopicid="120" transform="translate(421,497)"><use xlink:href="#minus"/></g><g ed:togtopicid="176" transform="translate(464,580)"><use xlink:href="#minus"/></g></svg>