<svg xmlns:ev="http://www.w3.org/2001/xml-events" xmlns:xlink="http://www.w3.org/1999/xlink" xmlns:ed="https://www.edrawsoft.com/xml/2017/SVGExtensions/" width="857" xmlns="http://www.w3.org/2000/svg" viewBox="0 0 857 669" height="669" ed:name="Page-1" ed:hSpacing="30" id="page100" ed:vSpacing="30"><style type="text/css"><![CDATA[
g[ed\:togtopicid],g[ed\:hyperlink],g[ed\:comment],g[ed\:note] {cursor:pointer;}
g[id] {-moz-user-select: none;-ms-user-select: none;user-select: none;}
svg text::selection,svg tspan::selection{background-color: #4285f4;color: #ffffff;fill: #ffffff;}
.st1 {fill:#454545;font-family:微软雅黑;font-size:11pt;font-weight:bold}
.st2 {text-decoration:line-through}
]]></style><defs><linearGradient y2="100%" x2="0%" x1="0%" y1="0%" id="lg1"><stop stop-color="#ffffff" offset="0"/><stop stop-color="#f0f5f0" offset="0.25"/><stop stop-color="#e1ebe1" offset="0.75"/><stop stop-color="#c8d7c8" offset="1"/></linearGradient></defs><rect x="0" width="857" y="0" height="669" fill="#ffffff"/><path ed:type="summary" d="M0.1,0C6,0,5.9,2.1,5.9,2.1L5.9,14.6C5.9,14.6,6.9,16.4,12,16.4C6.9,16.5,5.9,18.1,5.9,18.1L5.9,30.7C5.9,30.7,5.8,32.8,0,32.8" stroke="#ffcd55" ed:parentid="106" stroke-linejoin="round" ed:idlist="106" transform="matrix(1,0,0,1,322,611)" id="156" fill="none"/><path ed:type="summary" d="M0.1,0C6,0,5.9,11.8,5.9,11.8L5.9,83.4C5.9,83.4,6.9,93.5,12,93.5C6.9,93.9,5.9,103.6,5.9,103.6L5.9,175.2C5.9,175.2,5.8,187,0,187" stroke="#ff7575" ed:parentid="108,110,112,114,116,134" stroke-linejoin="round" ed:idlist="108,110,112,114,116,134" transform="matrix(1,0,0,1,497,25)" id="142" fill="none"/><path ed:type="summary" d="M0.1,0C6,0,5.9,3.7,5.9,3.7L5.9,25.9C5.9,25.9,6.9,29,12,29C6.9,29.1,5.9,32.1,5.9,32.1L5.9,54.3C5.9,54.3,5.8,58,0,58" stroke="#ff7575" ed:parentid="136,138" stroke-linejoin="round" ed:idlist="136,138" transform="matrix(1,0,0,1,397,219)" id="144" fill="none"/><path ed:type="summary" d="M0.1,0C6,0,5.9,1.6,5.9,1.6L5.9,11.5C5.9,11.5,6.9,12.9,12,12.9C6.9,12.9,5.9,14.3,5.9,14.3L5.9,24.1C5.9,24.1,5.8,25.8,0,25.8" stroke="#ff7575" ed:parentid="140" stroke-linejoin="round" ed:idlist="140" transform="matrix(1,0,0,1,425,285)" id="146" fill="none"/><path ed:type="summary" d="M0.1,0C6,0,5.9,1.6,5.9,1.6L5.9,11.5C5.9,11.5,6.9,12.9,12,12.9C6.9,12.9,5.9,14.3,5.9,14.3L5.9,24.1C5.9,24.1,5.8,25.8,0,25.8" stroke="#5fb7f1" ed:parentid="130" stroke-linejoin="round" ed:idlist="130" transform="matrix(1,0,0,1,585,348)" id="148" fill="none"/><path ed:type="summary" d="M0.1,0C6,0,5.9,1.6,5.9,1.6L5.9,11.5C5.9,11.5,6.9,12.9,12,12.9C6.9,12.9,5.9,14.3,5.9,14.3L5.9,24.1C5.9,24.1,5.8,25.8,0,25.8" stroke="#5fb7f1" ed:parentid="132" stroke-linejoin="round" ed:idlist="132" transform="matrix(1,0,0,1,570,385)" id="150" fill="none"/><path ed:type="summary" d="M0.1,0C6,0,5.9,3.7,5.9,3.7L5.9,25.9C5.9,25.9,6.9,29,12,29C6.9,29.1,5.9,32.1,5.9,32.1L5.9,54.3C5.9,54.3,5.8,58,0,58" stroke="#5fb7f1" ed:parentid="124,126" stroke-linejoin="round" ed:idlist="124,126" transform="matrix(1,0,0,1,556,419)" id="152" fill="none"/><path ed:type="summary" d="M0.1,0C6,0,5.9,1.6,5.9,1.6L5.9,11.5C5.9,11.5,6.9,12.9,12,12.9C6.9,12.9,5.9,14.3,5.9,14.3L5.9,24.1C5.9,24.1,5.8,25.8,0,25.8" stroke="#5fb7f1" ed:parentid="128" stroke-linejoin="round" ed:idlist="128" transform="matrix(1,0,0,1,671,486)" id="154" fill="none"/><path ed:type="summary" d="M0.1,0C6,0,5.9,3.7,5.9,3.7L5.9,25.9C5.9,25.9,6.9,29,12,29C6.9,29.1,5.9,32.1,5.9,32.1L5.9,54.3C5.9,54.3,5.8,58,0,58" stroke="#5fb7f1" ed:parentid="178,180" stroke-linejoin="round" ed:idlist="178,180" transform="matrix(1,0,0,1,642,520)" id="183" fill="none"/><path d="M-27,46.7C-27.9,48.2,-27.6,49.8,-26.4,50.6C-25.2,51.3,-23.6,50.9,-22.7,49.3C-21.5,47.2,-20.3,45.2,-19.2,43.1C-18.1,41,-17.1,38.8,-16.1,36.7C-15.1,34.6,-14.1,32.4,-13.2,30.2C-12.3,28.1,-11.4,25.9,-10.5,23.7C-9.6,21.5,-8.8,19.3,-8,17.2C-7.1,15,-6.3,12.8,-5.5,10.6C-4.7,8.4,-3.9,6.2,-3.1,4C-2.3,1.8,-1.5,-0.4,-0.7,-2.6C0.2,-4.7,1,-6.9,1.8,-9.1C2.6,-11.3,3.5,-13.4,4.3,-15.6C5.2,-17.7,6.1,-19.9,7,-22C7.9,-24.2,8.8,-26.3,9.8,-28.4C10.8,-30.5,11.8,-32.6,12.8,-34.6C13.9,-36.7,15,-38.7,16.1,-40.7C17.3,-42.7,18.5,-44.7,19.7,-46.6C21,-48.6,22.3,-50.4,23.8,-52.3C25.2,-54.1,26.7,-55.8,28.2,-57.5C29.8,-59.2,31.5,-60.8,33.2,-62.2C35,-63.7,36.8,-65.1,38.8,-66.3C40.7,-67.5,42.7,-68.6,44.8,-69.6C46.9,-70.5,49.1,-71.3,51.3,-72C53.5,-72.6,55.7,-73.1,58,-73.4C60.4,-73.7,63,-73.9,65.6,-74C65.9,-74,66.2,-74.2,66.2,-74.5C66.2,-74.8,65.9,-75,65.6,-75C63,-74.9,60.3,-74.9,57.9,-74.6C55.4,-74.3,53.2,-73.9,50.9,-73.3C48.7,-72.7,46.4,-71.9,44.2,-71C42,-70.1,39.9,-69,37.9,-67.8C35.8,-66.5,33.9,-65.2,32,-63.7C30.2,-62.2,28.4,-60.6,26.8,-58.9C25.1,-57.2,23.5,-55.5,22,-53.6C20.5,-51.8,19.1,-49.9,17.7,-48C16.4,-46,15.1,-44.1,13.9,-42.1C12.7,-40,11.5,-38,10.4,-35.9C9.3,-33.8,8.2,-31.8,7.2,-29.6C6.1,-27.5,5.1,-25.4,4.1,-23.3C3.2,-21.1,2.2,-19,1.3,-16.8C0.4,-14.7,-0.5,-12.5,-1.4,-10.4C-2.3,-8.2,-3.2,-6,-4,-3.8C-4.9,-1.7,-5.8,0.5,-6.6,2.7C-7.5,4.8,-8.3,7,-9.2,9.2C-10.1,11.3,-10.9,13.5,-11.8,15.6C-12.7,17.8,-13.6,19.9,-14.5,22.1C-15.4,24.2,-16.3,26.3,-17.3,28.4C-18.3,30.5,-19.2,32.6,-20.3,34.7C-21.3,36.7,-22.3,38.8,-23.5,40.8C-24.6,42.8,-25.8,44.7,-27,46.7z" stroke="#ff7575" stroke-linecap="round" ed:parentid="101" ed:tosuperid="102" stroke-linejoin="round" transform="matrix(1,0,0,1,158,260)" id="103" fill="#ff7575"/><path d="M-22.2,-46.8C-23.1,-48.4,-24.7,-48.8,-25.9,-48C-27.1,-47.3,-27.4,-45.7,-26.4,-44.2C-25.2,-42.2,-24,-40.3,-22.9,-38.3C-21.7,-36.3,-20.6,-34.3,-19.6,-32.2C-18.5,-30.2,-17.5,-28.1,-16.5,-26C-15.6,-23.9,-14.6,-21.8,-13.7,-19.7C-12.7,-17.6,-11.8,-15.4,-10.9,-13.3C-10,-11.2,-9.1,-9,-8.2,-6.9C-7.3,-4.7,-6.4,-2.5,-5.5,-0.4C-4.6,1.8,-3.7,3.9,-2.8,6.1C-1.9,8.2,-0.9,10.4,-0,12.5C0.9,14.7,1.9,16.8,2.9,18.9C3.8,21.1,4.8,23.2,5.9,25.3C6.9,27.4,8,29.5,9.1,31.6C10.2,33.7,11.3,35.7,12.5,37.7C13.7,39.8,15,41.8,16.3,43.7C17.6,45.7,19,47.6,20.5,49.5C21.9,51.3,23.5,53.1,25.1,54.8C26.7,56.6,28.4,58.2,30.2,59.8C32,61.3,33.9,62.8,35.9,64.1C37.9,65.4,39.9,66.5,42.1,67.6C44.2,68.6,46.5,69.5,48.7,70.2C50.9,70.9,53.1,71.4,55.6,71.8C58.1,72.2,60.9,72.4,62.6,72.5C64.4,72.6,65,72.5,65.6,72.5C65.9,72.5,66.2,72.3,66.2,72C66.2,71.7,65.9,71.5,65.6,71.5C65,71.5,64.4,71.5,62.7,71.4C61,71.3,58.3,71,55.8,70.5C53.4,70.1,51.3,69.5,49.1,68.8C47,68.1,44.9,67.2,42.8,66.1C40.7,65.1,38.8,63.9,36.9,62.6C35,61.3,33.2,59.8,31.5,58.3C29.8,56.8,28.2,55.1,26.7,53.4C25.2,51.7,23.7,49.9,22.3,48C21,46.2,19.7,44.3,18.4,42.4C17.2,40.4,16,38.4,14.9,36.4C13.7,34.4,12.7,32.3,11.6,30.3C10.6,28.2,9.6,26.1,8.6,24C7.6,21.9,6.7,19.8,5.8,17.6C4.9,15.5,4,13.4,3.1,11.2C2.2,9.1,1.4,6.9,0.5,4.7C-0.3,2.6,-1.2,0.4,-2,-1.8C-2.8,-4,-3.7,-6.1,-4.5,-8.3C-5.4,-10.5,-6.2,-12.7,-7.1,-14.9C-7.9,-17,-8.8,-19.2,-9.7,-21.4C-10.6,-23.5,-11.5,-25.7,-12.5,-27.9C-13.4,-30,-14.4,-32.2,-15.4,-34.3C-16.5,-36.4,-17.5,-38.5,-18.6,-40.6C-19.8,-42.7,-21,-44.8,-22.2,-46.8z" stroke="#5fb7f1" stroke-linecap="round" ed:parentid="101" ed:tosuperid="104" stroke-linejoin="round" transform="matrix(1,0,0,1,158,406)" id="105" fill="#5fb7f1"/><path d="M-30.6,-129.2C-31.3,-130.9,-32.8,-131.5,-34.1,-130.9C-35.3,-130.4,-35.9,-128.8,-35.1,-127.2C-34.2,-125.1,-33.4,-123,-32.5,-120.9C-31.7,-118.7,-31,-116.5,-30.3,-114.4C-29.6,-112.2,-29,-110,-28.3,-107.7C-27.7,-105.5,-27.2,-103.3,-26.6,-101C-26.1,-98.8,-25.6,-96.5,-25.1,-94.3C-24.6,-92,-24.2,-89.7,-23.7,-87.4C-23.3,-85.2,-22.9,-82.9,-22.5,-80.6C-22.1,-78.3,-21.7,-76,-21.4,-73.7C-21,-71.4,-20.7,-69.1,-20.4,-66.8C-20,-64.5,-19.7,-62.2,-19.4,-59.9C-19.1,-57.6,-18.8,-55.3,-18.5,-53C-18.2,-50.7,-17.9,-48.3,-17.6,-46C-17.4,-43.7,-17.1,-41.4,-16.8,-39.1C-16.6,-36.8,-16.3,-34.5,-16,-32.1C-15.8,-29.8,-15.5,-27.5,-15.3,-25.2C-15,-22.9,-14.8,-20.6,-14.5,-18.2C-14.3,-15.9,-14,-13.6,-13.7,-11.3C-13.5,-9,-13.2,-6.6,-13,-4.3C-12.7,-2,-12.5,0.3,-12.2,2.6C-11.9,5,-11.7,7.3,-11.4,9.6C-11.1,11.9,-10.8,14.2,-10.6,16.6C-10.3,18.9,-10,21.2,-9.7,23.5C-9.4,25.8,-9.1,28.2,-8.8,30.5C-8.5,32.8,-8.1,35.1,-7.8,37.4C-7.5,39.7,-7.1,42,-6.8,44.4C-6.4,46.7,-6,49,-5.6,51.3C-5.2,53.6,-4.8,55.9,-4.4,58.2C-4,60.5,-3.6,62.8,-3.1,65.1C-2.7,67.4,-2.2,69.7,-1.7,72C-1.2,74.3,-0.7,76.5,-0.1,78.8C0.4,81.1,1,83.4,1.6,85.6C2.2,87.9,2.9,90.1,3.5,92.4C4.2,94.6,4.9,96.9,5.7,99.1C6.4,101.3,7.2,103.5,8,105.7C8.9,107.9,9.7,110.1,10.7,112.3C11.6,114.4,12.6,116.6,13.7,118.7C14.7,120.8,15.8,122.8,17,124.9C18.2,126.9,19.5,128.9,20.8,130.8C22.2,132.7,23.6,134.6,25.2,136.4C26.7,138.2,28.3,139.9,30.1,141.5C31.8,143.1,33.6,144.6,35.5,146C37.5,147.4,39.5,148.6,41.6,149.7C43.7,150.8,45.9,151.7,48.1,152.5C50.3,153.2,52.5,153.8,55,154.3C57.4,154.7,60.2,155,62,155.1C63.8,155.2,64.7,155.2,65.6,155.2C65.9,155.2,66.2,155,66.2,154.7C66.2,154.4,65.9,154.2,65.6,154.2C64.7,154.2,63.8,154.2,62,154.1C60.3,153.9,57.6,153.6,55.2,153.2C52.8,152.7,50.7,152.1,48.5,151.3C46.4,150.6,44.2,149.6,42.2,148.5C40.2,147.5,38.2,146.2,36.4,144.9C34.5,143.5,32.7,142,31.1,140.4C29.4,138.8,27.8,137.2,26.4,135.4C24.9,133.6,23.5,131.8,22.2,129.9C20.9,127.9,19.7,126,18.5,124C17.4,122,16.3,119.9,15.3,117.8C14.3,115.8,13.3,113.6,12.4,111.5C11.5,109.4,10.7,107.2,9.9,105C9.1,102.9,8.4,100.7,7.6,98.4C6.9,96.2,6.3,94,5.6,91.8C5,89.6,4.4,87.3,3.8,85.1C3.2,82.8,2.7,80.5,2.2,78.3C1.7,76,1.2,73.7,0.7,71.5C0.3,69.2,-0.2,66.9,-0.6,64.6C-1,62.3,-1.5,60,-1.8,57.7C-2.2,55.4,-2.6,53.1,-3,50.8C-3.3,48.5,-3.7,46.2,-4,43.9C-4.3,41.6,-4.6,39.3,-4.9,37C-5.2,34.7,-5.5,32.4,-5.8,30.1C-6.1,27.8,-6.4,25.5,-6.6,23.2C-6.9,20.8,-7.2,18.5,-7.4,16.2C-7.7,13.9,-7.9,11.6,-8.2,9.3C-8.4,6.9,-8.7,4.6,-8.9,2.3C-9.1,-0,-9.4,-2.3,-9.6,-4.7C-9.8,-7,-10,-9.3,-10.3,-11.6C-10.5,-14,-10.7,-16.3,-10.9,-18.6C-11.2,-20.9,-11.4,-23.2,-11.6,-25.6C-11.8,-27.9,-12.1,-30.2,-12.3,-32.5C-12.5,-34.9,-12.8,-37.2,-13,-39.5C-13.2,-41.8,-13.5,-44.2,-13.7,-46.5C-14,-48.8,-14.2,-51.1,-14.5,-53.5C-14.8,-55.8,-15,-58.1,-15.3,-60.4C-15.6,-62.7,-15.9,-65.1,-16.2,-67.4C-16.5,-69.7,-16.8,-72,-17.1,-74.3C-17.5,-76.7,-17.8,-79,-18.2,-81.3C-18.6,-83.6,-18.9,-85.9,-19.3,-88.2C-19.8,-90.6,-20.2,-92.9,-20.6,-95.2C-21.1,-97.5,-21.6,-99.8,-22.1,-102.1C-22.6,-104.4,-23.2,-106.7,-23.8,-109C-24.4,-111.2,-25,-113.5,-25.7,-115.8C-26.4,-118.1,-27.1,-120.3,-27.9,-122.5C-28.8,-124.8,-29.7,-127,-30.6,-129.2z" stroke="#ffcd55" stroke-linecap="round" ed:parentid="101" ed:tosuperid="106" stroke-linejoin="round" transform="matrix(1,0,0,1,158,489)" id="107" fill="#ffcd55"/><path d="M-13.5,67.3C5.4,67.3,-13.5,-67.3,13.5,-67.3" stroke="#ff7575" stroke-linecap="round" ed:parentid="102" ed:tosuperid="108" stroke-linejoin="round" transform="matrix(1,0,0,1,330,118)" id="109" stroke-width="2" fill="none"/><path d="M-13.5,51.2C5.4,51.2,-13.4,-51.2,13.5,-51.2" stroke="#ff7575" stroke-linecap="round" ed:parentid="102" ed:tosuperid="110" stroke-linejoin="round" transform="matrix(1,0,0,1,330,134)" id="111" stroke-width="2" fill="none"/><path d="M-13.5,35.1C4.2,35.1,-10.7,-35.1,13.5,-35.1" stroke="#ff7575" stroke-linecap="round" ed:parentid="102" ed:tosuperid="112" stroke-linejoin="round" transform="matrix(1,0,0,1,330,150)" id="113" stroke-width="2" fill="none"/><path d="M-13.5,18.9C1.5,18.9,-4.5,-18.9,13.5,-18.9" stroke="#ff7575" stroke-linecap="round" ed:parentid="102" ed:tosuperid="114" stroke-linejoin="round" transform="matrix(1,0,0,1,330,166)" id="115" stroke-width="2" fill="none"/><path d="M-13.5,2.8C-2,2.8,3.9,-2.8,13.5,-2.8" stroke="#ff7575" stroke-linecap="round" ed:parentid="102" ed:tosuperid="116" stroke-linejoin="round" transform="matrix(1,0,0,1,330,183)" id="117" stroke-width="2" fill="none"/><path d="M-13.5,43.1C5,43.1,-12.6,-43.1,13.5,-43.1" stroke="#5fb7f1" stroke-linecap="round" ed:parentid="104" ed:tosuperid="118" stroke-linejoin="round" transform="matrix(1,0,0,1,330,435)" id="119" stroke-width="2" fill="none"/><path d="M-13.5,-0.4C-2.7,-0.4,5.4,0.4,13.5,0.4" stroke="#5fb7f1" stroke-linecap="round" ed:parentid="104" ed:tosuperid="120" stroke-linejoin="round" transform="matrix(1,0,0,1,330,479)" id="121" stroke-width="2" fill="none"/><path d="M-13.5,17.2C1.2,17.2,-3.7,-17.2,13.5,-17.2" stroke="#5fb7f1" stroke-linecap="round" ed:parentid="120" ed:tosuperid="124" stroke-linejoin="round" transform="matrix(1,0,0,1,433,462)" id="125" stroke-width="2" fill="none"/><path d="M-13.5,1.1C-2.7,1.1,5.4,-1.1,13.5,-1.1" stroke="#5fb7f1" stroke-linecap="round" ed:parentid="120" ed:tosuperid="126" stroke-linejoin="round" transform="matrix(1,0,0,1,433,478)" id="127" stroke-width="2" fill="none"/><path d="M-13.5,-16.1C1,-16.1,-3.1,16.1,13.5,16.1" stroke="#5fb7f1" stroke-linecap="round" ed:parentid="120" ed:tosuperid="128" stroke-linejoin="round" transform="matrix(1,0,0,1,433,495)" id="129" stroke-width="2" fill="none"/><path d="M-13.5,9.1C-0.6,9.1,0.4,-9.1,13.5,-9.1" stroke="#5fb7f1" stroke-linecap="round" ed:parentid="118" ed:tosuperid="130" stroke-linejoin="round" transform="matrix(1,0,0,1,447,383)" id="131" stroke-width="2" fill="none"/><path d="M-13.5,-9.1C-0.6,-9.1,0.4,9.1,13.5,9.1" stroke="#5fb7f1" stroke-linecap="round" ed:parentid="118" ed:tosuperid="132" stroke-linejoin="round" transform="matrix(1,0,0,1,447,401)" id="133" stroke-width="2" fill="none"/><path d="M-13.5,-13.3C0.4,-13.3,-1.7,13.3,13.5,13.3" stroke="#ff7575" stroke-linecap="round" ed:parentid="102" ed:tosuperid="134" stroke-linejoin="round" transform="matrix(1,0,0,1,330,199)" id="135" stroke-width="2" fill="none"/><path d="M-13.5,-29.4C3.4,-29.4,-8.9,29.4,13.5,29.4" stroke="#ff7575" stroke-linecap="round" ed:parentid="102" ed:tosuperid="136" stroke-linejoin="round" transform="matrix(1,0,0,1,330,215)" id="137" stroke-width="2" fill="none"/><path d="M-13.5,-45.6C5.2,-45.6,-12.9,45.6,13.5,45.6" stroke="#ff7575" stroke-linecap="round" ed:parentid="102" ed:tosuperid="138" stroke-linejoin="round" transform="matrix(1,0,0,1,330,231)" id="139" stroke-width="2" fill="none"/><path d="M-13.5,-62.8C5.4,-62.8,-13.5,62.8,13.5,62.8" stroke="#ff7575" stroke-linecap="round" ed:parentid="102" ed:tosuperid="140" stroke-linejoin="round" transform="matrix(1,0,0,1,330,248)" id="141" stroke-width="2" fill="none"/><path d="M-13.5,-41.8C4.9,-41.8,-12.3,41.8,13.5,41.8" stroke="#5fb7f1" stroke-linecap="round" ed:parentid="104" ed:tosuperid="176" stroke-linejoin="round" transform="matrix(1,0,0,1,330,520)" id="177" stroke-width="2" fill="none"/><path d="M-13.5,8.1C-0.8,8.1,1,-8.1,13.5,-8.1" stroke="#5fb7f1" stroke-linecap="round" ed:parentid="176" ed:tosuperid="178" stroke-linejoin="round" transform="matrix(1,0,0,1,476,554)" id="179" stroke-width="2" fill="none"/><path d="M-13.5,-8.1C-0.8,-8.1,1,8.1,13.5,8.1" stroke="#5fb7f1" stroke-linecap="round" ed:parentid="176" ed:tosuperid="180" stroke-linejoin="round" transform="matrix(1,0,0,1,476,570)" id="181" stroke-width="2" fill="none"/><g ed:layout="map" transform="matrix(1,0,0,1,24,308)" ed:width="136.32" ed:topictype="mainidea" id="101" ed:height="53"><path d="M26.5,0L109.8,0C124.5,0,136.3,11.9,136.3,26.5C136.3,41.1,124.5,53,109.8,53L26.5,53C11.9,53,0,41.1,0,26.5C0,11.9,11.9,0,26.5,0z" stroke="#ffffff" stroke-linejoin="round" fill="#ffffff" stroke-width="4"/><text class="st1"><tspan x="23" y="30.8" style="white-space:pre">图像融合方法</tspan></text></g><g ed:parentid="101" ed:layout="rightmap" transform="matrix(1,0,0,1,223,153)" ed:width="93.59999999999999" id="102" ed:height="32.75"><path d="M0,32.8L93.6,32.8" stroke="#ff7575" stroke-linejoin="round" stroke-width="2" fill="none"/><text class="st1"><tspan x="17" y="20.4" style="white-space:pre">空间域法</tspan></text></g><g ed:parentid="101" ed:layout="rightmap" transform="matrix(1,0,0,1,223,446)" ed:width="93.59999999999999" id="104" ed:height="32.75"><path d="M0,32.8L93.6,32.8" stroke="#5fb7f1" stroke-linejoin="round" stroke-width="2" fill="none"/><text class="st1"><tspan x="17" y="20.4" style="white-space:pre">变换域法</tspan></text></g><g ed:parentid="101" ed:layout="rightmap" transform="matrix(1,0,0,1,223,611)" ed:width="93.59999999999999" id="106" ed:height="32.75"><path d="M0,32.8L93.6,32.8" stroke="#ffcd55" stroke-linejoin="round" stroke-width="2" fill="none"/><text class="st1"><tspan class="st2" x="17" y="20.4" style="white-space:pre">深度学习</tspan></text></g><g ed:parentid="102" ed:layout="rightmap" transform="matrix(1,0,0,1,344,25)" ed:width="90" id="108" ed:height="25.75"><path d="M0,25.8L90,25.8" stroke="#ff7575" stroke-linejoin="round" stroke-width="2" fill="none"/><text class="st1"><tspan x="8" y="16.8" style="white-space:pre">平均灰度法</tspan></text></g><g ed:parentid="102" ed:layout="rightmap" transform="matrix(1,0,0,1,344,57)" ed:width="90" id="110" ed:height="25.75"><path d="M0,25.8L90,25.8" stroke="#ff7575" stroke-linejoin="round" stroke-width="2" fill="none"/><text class="st1"><tspan x="8" y="16.8" style="white-space:pre">最大灰度法</tspan></text></g><g ed:parentid="102" ed:layout="rightmap" transform="matrix(1,0,0,1,344,90)" ed:width="90" id="112" ed:height="25.75"><path d="M0,25.8L90,25.8" stroke="#ff7575" stroke-linejoin="round" stroke-width="2" fill="none"/><text class="st1"><tspan x="8" y="16.8" style="white-space:pre">最小灰度法</tspan></text></g><g ed:parentid="102" ed:layout="rightmap" transform="matrix(1,0,0,1,344,122)" ed:width="147.6" id="114" ed:height="25.75"><path d="M0,25.8L147.6,25.8" stroke="#ff7575" stroke-linejoin="round" stroke-width="2" fill="none"/><text class="st1"><tspan x="8" y="16.8" style="white-space:pre">最大最小平均灰度法</tspan></text></g><g ed:parentid="102" ed:layout="rightmap" transform="matrix(1,0,0,1,344,154)" ed:width="147.6" id="116" ed:height="25.75"><path d="M0,25.8L147.6,25.8" stroke="#ff7575" stroke-linejoin="round" stroke-width="2" fill="none"/><text class="st1"><tspan x="8" y="16.8" style="white-space:pre">简单邻域平均灰度法</tspan></text></g><g ed:parentid="104" ed:layout="rightmap" transform="matrix(1,0,0,1,344,366)" ed:width="90" id="118" ed:height="25.75"><path d="M0,25.8L90,25.8" stroke="#5fb7f1" stroke-linejoin="round" stroke-width="2" fill="none"/><text class="st1"><tspan x="8" y="16.8" style="white-space:pre">金字塔分解</tspan></text></g><g ed:parentid="104" ed:layout="rightmap" transform="matrix(1,0,0,1,344,453)" ed:width="75.59999999999999" id="120" ed:height="25.75"><path d="M0,25.8L75.6,25.8" stroke="#5fb7f1" stroke-linejoin="round" stroke-width="2" fill="none"/><text class="st1"><tspan x="8" y="16.8" style="white-space:pre">离散变换</tspan></text></g><g ed:parentid="120" ed:layout="rightmap" transform="matrix(1,0,0,1,447,419)" ed:width="104.4" id="124" ed:height="25.75"><path d="M0,25.8L104.4,25.8" stroke="#5fb7f1" stroke-linejoin="round" stroke-width="2" fill="none"/><text class="st1"><tspan x="8" y="16.8" style="white-space:pre">离散余弦变换</tspan></text></g><g ed:parentid="120" ed:layout="rightmap" transform="matrix(1,0,0,1,447,451)" ed:width="104.4" id="126" ed:height="25.75"><path d="M0,25.8L104.4,25.8" stroke="#5fb7f1" stroke-linejoin="round" stroke-width="2" fill="none"/><text class="st1"><tspan x="8" y="16.8" style="white-space:pre">离散小波变换</tspan></text></g><g ed:parentid="120" ed:layout="rightmap" transform="matrix(1,0,0,1,447,486)" ed:width="219.6" id="128" ed:height="25.75"><path d="M0,25.8L219.6,25.8" stroke="#5fb7f1" stroke-linejoin="round" stroke-width="2" fill="none"/><text class="st1"><tspan class="st2" x="8" y="16.8" style="white-space:pre">平稳小波、曲小波、混合小波等</tspan></text></g><g ed:parentid="118" ed:layout="rightmap" transform="matrix(1,0,0,1,461,348)" ed:width="118.8" id="130" ed:height="25.75"><path d="M0,25.8L118.8,25.8" stroke="#5fb7f1" stroke-linejoin="round" stroke-width="2" fill="none"/><text class="st1"><tspan x="8" y="16.8" style="white-space:pre">拉普拉斯金字塔</tspan></text></g><g ed:parentid="118" ed:layout="rightmap" transform="matrix(1,0,0,1,461,385)" ed:width="104.4" id="132" ed:height="25.75"><path d="M0,25.8L104.4,25.8" stroke="#5fb7f1" stroke-linejoin="round" stroke-width="2" fill="none"/><text class="st1"><tspan class="st2" x="8" y="16.8" style="white-space:pre">梯度金字塔等</tspan></text></g><g ed:parentid="102" ed:layout="rightmap" transform="matrix(1,0,0,1,344,186)" ed:width="118.8" id="134" ed:height="25.75"><path d="M0,25.8L118.8,25.8" stroke="#ff7575" stroke-linejoin="round" stroke-width="2" fill="none"/><text class="st1"><tspan x="8" y="16.8" style="white-space:pre">加权平均灰度法</tspan></text></g><g ed:parentid="102" ed:layout="rightmap" transform="matrix(1,0,0,1,344,219)" ed:width="43.6" id="136" ed:height="25.75"><path d="M0,25.8L43.6,25.8" stroke="#ff7575" stroke-linejoin="round" stroke-width="2" fill="none"/><text class="st1"><tspan class="st2" x="8" y="16.8" style="white-space:pre">HIS</tspan></text></g><g ed:parentid="102" ed:layout="rightmap" transform="matrix(1,0,0,1,344,251)" ed:width="48.4" id="138" ed:height="25.75"><path d="M0,25.8L48.4,25.8" stroke="#ff7575" stroke-linejoin="round" stroke-width="2" fill="none"/><text class="st1"><tspan class="st2" x="8" y="16.8" style="white-space:pre">PCA</tspan></text></g><g ed:parentid="102" ed:layout="rightmap" transform="matrix(1,0,0,1,344,285)" ed:width="75.59999999999999" id="140" ed:height="25.75"><path d="M0,25.8L75.6,25.8" stroke="#ff7575" stroke-linejoin="round" stroke-width="2" fill="none"/><text class="st1"><tspan class="st2" x="8" y="16.8" style="white-space:pre">导向滤波</tspan></text></g><g ed:parentid="142" ed:layout="rightmap" transform="matrix(1,0,0,1,518,104)" ed:width="129.56" id="143" ed:height="30"><path d="M15,0L114.6,0C122.8,0,129.6,6.7,129.6,15C129.6,23.3,122.8,30,114.6,30L15,30C6.7,30,0,23.3,0,15C0,6.7,6.7,0,15,0z" stroke="#ff7575" stroke-linejoin="round" fill="#ffffff"/><text class="st1"><tspan x="13" y="19.3" style="white-space:pre">最为基本、简单</tspan></text></g><g ed:parentid="144" ed:layout="rightmap" transform="matrix(1,0,0,1,418,233)" ed:width="115.16" id="145" ed:height="30"><path d="M15,0L100.2,0C108.4,0,115.2,6.7,115.2,15C115.2,23.3,108.4,30,100.2,30L15,30C6.7,30,0,23.3,0,15C0,6.7,6.7,0,15,0z" stroke="#ff7575" stroke-linejoin="round" fill="#ffffff"/><text class="st1"><tspan x="13" y="19.3" style="white-space:pre">处理彩色图像</tspan></text></g><g ed:parentid="146" ed:layout="rightmap" transform="matrix(1,0,0,1,446,283)" ed:width="115.16" id="147" ed:height="30"><path d="M15,0L100.2,0C108.4,0,115.2,6.7,115.2,15C115.2,23.3,108.4,30,100.2,30L15,30C6.7,30,0,23.3,0,15C0,6.7,6.7,0,15,0z" stroke="#ff7575" stroke-linejoin="round" fill="#ffffff"/><text class="st1"><tspan x="13" y="19.3" style="white-space:pre">暂时不作了解</tspan></text></g><g ed:parentid="148" ed:layout="rightmap" transform="matrix(1,0,0,1,606,346)" ed:width="86.36" id="149" ed:height="30"><path d="M15,0L71.4,0C79.6,0,86.4,6.7,86.4,15C86.4,23.3,79.6,30,71.4,30L15,30C6.7,30,0,23.3,0,15C0,6.7,6.7,0,15,0z" stroke="#5fb7f1" stroke-linejoin="round" fill="#ffffff"/><text class="st1"><tspan x="13" y="19.3" style="white-space:pre">最为经典</tspan></text></g><g ed:parentid="150" ed:layout="rightmap" transform="matrix(1,0,0,1,591,383)" ed:width="201.56" id="151" ed:height="30"><path d="M15,0L186.6,0C194.8,0,201.6,6.7,201.6,15C201.6,23.3,194.8,30,186.6,30L15,30C6.7,30,0,23.3,0,15C0,6.7,6.7,0,15,0z" stroke="#5fb7f1" stroke-linejoin="round" fill="#ffffff"/><text class="st1"><tspan x="13" y="19.3" style="white-space:pre">原理与拉普拉斯金字塔类似</tspan></text></g><g ed:parentid="152" ed:layout="rightmap" transform="matrix(1,0,0,1,577,433)" ed:width="86.36" id="153" ed:height="30"><path d="M15,0L71.4,0C79.6,0,86.4,6.7,86.4,15C86.4,23.3,79.6,30,71.4,30L15,30C6.7,30,0,23.3,0,15C0,6.7,6.7,0,15,0z" stroke="#5fb7f1" stroke-linejoin="round" fill="#ffffff"/><text class="st1"><tspan x="13" y="19.3" style="white-space:pre">最为常见</tspan></text></g><g ed:parentid="154" ed:layout="rightmap" transform="matrix(1,0,0,1,692,484)" ed:width="115.16" id="155" ed:height="30"><path d="M15,0L100.2,0C108.4,0,115.2,6.7,115.2,15C115.2,23.3,108.4,30,100.2,30L15,30C6.7,30,0,23.3,0,15C0,6.7,6.7,0,15,0z" stroke="#5fb7f1" stroke-linejoin="round" fill="#ffffff"/><text class="st1"><tspan x="13" y="19.3" style="white-space:pre">暂时不作了解</tspan></text></g><g ed:parentid="156" ed:layout="rightmap" transform="matrix(1,0,0,1,343,612)" ed:width="259.16" id="157" ed:height="30"><path d="M15,0L244.2,0C252.4,0,259.2,6.7,259.2,15C259.2,23.3,252.4,30,244.2,30L15,30C6.7,30,0,23.3,0,15C0,6.7,6.7,0,15,0z" stroke="#ffcd55" stroke-linejoin="round" fill="#ffffff"/><text class="st1"><tspan x="13" y="19.3" style="white-space:pre">暂时不作了解，但可以看一看PCNN</tspan></text></g><g ed:parentid="104" ed:layout="rightmap" transform="matrix(1,0,0,1,344,536)" ed:width="118.8" id="176" ed:height="25.75"><path d="M0,25.8L118.8,25.8" stroke="#5fb7f1" stroke-linejoin="round" stroke-width="2" fill="none"/><text class="st1"><tspan class="st2" x="8" y="16.8" style="white-space:pre">多尺度几何分析</tspan></text></g><g ed:parentid="176" ed:layout="rightmap" transform="matrix(1,0,0,1,490,520)" ed:width="147.6" id="178" ed:height="25.75"><path d="M0,25.8L147.6,25.8" stroke="#5fb7f1" stroke-linejoin="round" stroke-width="2" fill="none"/><text class="st1"><tspan x="8" y="16.8" style="white-space:pre">非下采样轮廓波变换</tspan></text></g><g ed:parentid="176" ed:layout="rightmap" transform="matrix(1,0,0,1,490,552)" ed:width="147.6" id="180" ed:height="25.75"><path d="M0,25.8L147.6,25.8" stroke="#5fb7f1" stroke-linejoin="round" stroke-width="2" fill="none"/><text class="st1"><tspan x="8" y="16.8" style="white-space:pre">非下采样剪切波变换</tspan></text></g><g ed:parentid="183" ed:layout="rightmap" transform="matrix(1,0,0,1,663,534)" ed:width="172.76" id="184" ed:height="30"><path d="M15,0L157.8,0C166,0,172.8,6.7,172.8,15C172.8,23.3,166,30,157.8,30L15,30C6.7,30,0,23.3,0,15C0,6.7,6.7,0,15,0z" stroke="#5fb7f1" stroke-linejoin="round" fill="#ffffff"/><text class="st1"><tspan x="13" y="19.3" style="white-space:pre">暂时先知道有这个东西</tspan></text></g><symbol id="plus"><path d="M11,6C11,8.8,8.8,11,6,11C3.2,11,1,8.8,1,6C1,3.2,3.2,1,6,1C8.8,1,11,3.2,11,6z" fill="url(#lg1)"/><path d="M11,6C11,8.8,8.8,11,6,11C3.2,11,1,8.8,1,6C1,3.2,3.2,1,6,1C8.8,1,11,3.2,11,6zM3,6L9,6M6,3L6,9" stroke="#46a000" fill="none" stroke-width="0.7"/></symbol><symbol id="minus"><path d="M11,6C11,8.8,8.8,11,6,11C3.2,11,1,8.8,1,6C1,3.2,3.2,1,6,1C8.8,1,11,3.2,11,6z" fill="url(#lg1)"/><path d="M11,6C11,8.8,8.8,11,6,11C3.2,11,1,8.8,1,6C1,3.2,3.2,1,6,1C8.8,1,11,3.2,11,6zM3,6L9,6" stroke="#46a000" fill="none" stroke-width="0.7"/></symbol><g ed:togtopicid="101" transform="translate(161,328)"><use xlink:href="#minus"/></g><g ed:togtopicid="102" transform="translate(318,163)"><use xlink:href="#minus"/></g><g ed:togtopicid="104" transform="translate(318,456)"><use xlink:href="#minus"/></g><g ed:togtopicid="118" transform="translate(435,373)"><use xlink:href="#minus"/></g><g ed:togtopicid="120" transform="translate(421,460)"><use xlink:href="#minus"/></g><g ed:togtopicid="176" transform="translate(464,543)"><use xlink:href="#minus"/></g></svg>